<?xml version="1.0" encoding="utf-8"?>
<!-- Generator: Adobe Illustrator 16.0.4, SVG Export Plug-In . SVG Version: 6.00 Build 0)  -->
<!DOCTYPE svg PUBLIC "-//W3C//DTD SVG 1.1//EN" "http://www.w3.org/Graphics/SVG/1.1/DTD/svg11.dtd">
<svg version="1.1" id="Layer_1" xmlns="http://www.w3.org/2000/svg" xmlns:xlink="http://www.w3.org/1999/xlink" x="0px" y="0px"
	 width="118.776px" height="100px" viewBox="0 0 118.776 100" enable-background="new 0 0 118.776 100" xml:space="preserve">
<path fill-rule="evenodd" clip-rule="evenodd" fill="#BFBFBF" d="M118.776,50.238c-0.641,1.55-2.02,2.232-3.432,2.813
	c-2.607,1.074-5.359,1.653-8.121,2.174c-3.459,0.652-6.964,0.802-10.467,0.792c-8.001-0.022-16.001-0.132-24.002-0.173
	c-0.575-0.004-0.82,0.381-1.219,1.09c-2.391,1.828-3.701,4.398-5.736,6.332c0.025,0.047,0.049,0.092,0.074,0.139
	c0.162,0,0.324,0.002,0.485,0c1.759-0.031,3.519-0.08,5.278-0.084c0.721,0,1.003,0.307,1.027,1.027
	c0.037,1.067,0.084,2.138,0.041,3.204c-0.045,1.12-0.334,1.372-1.441,1.455c-2.076,0.154-4.154,0.208-6.219-0.137
	c-0.318-0.053-0.604-0.305-0.906-0.461c-0.199-0.102-0.393-0.228-0.604-0.288c-0.905-0.259-1.542-0.08-2.2,0.76
	c-6.742,8.602-13.542,17.156-20.331,25.721c-0.688,0.869-1.45,1.682-2.111,2.57c-0.541,0.727-1.294,1.014-2.079,1.35
	c-0.769,0.33-1.459,0.842-2.184,1.275c-0.158,0-0.316,0-0.475,0c-0.115-0.285-0.284-0.395-0.628-0.373
	c-0.783,0.047-1.572,0.014-2.532,0.014c0.267-0.301,0.397-0.449,0.526-0.598c-0.178-0.17-0.353-0.334-0.526-0.5
	c-0.002-0.078-0.003-0.156-0.005-0.234c1.045,0.33,1.191-0.408,1.463-1.008c1.867-4.125,3.737-8.248,5.611-12.371
	c0.098-0.215,0.237-0.414,0.34-0.59c-0.128-0.014-0.359-0.037-0.666-0.066c0.104-0.252,0.185-0.467,0.278-0.676
	c2.156-4.84,4.317-9.68,6.468-14.521c0.196-0.443,0.361-0.871,1.021-0.648c0.201-1.33,0.394-2.594,0.589-3.889
	c-0.172-0.053-0.315-0.096-0.486-0.146c0.353-2.801,0.704-5.598,1.064-8.457c-0.37-0.029-0.64-0.072-0.909-0.072
	c-2.853,0.01-5.704,0.047-8.556,0.033c-5.434-0.023-10.842-0.361-16.165-1.535c-0.931-0.205-1.53,0.057-2.079,0.807
	c-1.683,2.301-3.414,4.566-5.121,6.85c-1.15,1.539-2.313,3.066-3.43,4.629c-0.541,0.756-1.166,1.15-2.138,1.082
	c-1.098-0.078-2.205-0.018-3.361-0.018c1.195-4.912,2.373-9.75,3.564-14.652c-0.307-0.043-0.596-0.076-0.881-0.127
	c-0.418-0.074-0.899-0.051-0.943-0.684c-0.006-0.092-0.296-0.207-0.467-0.232c-0.586-0.09-1.18-0.133-1.768-0.217
	c-0.479-0.068-0.99-0.062-1.293-0.58c-0.067-0.113-0.318-0.127-0.488-0.172c-0.65-0.17-1.305-0.324-1.953-0.504
	c-0.234-0.064-0.455-0.18-0.682-0.272C0.002,50.013,0.001,49.956,0,49.899c0.494-0.159,0.989-0.312,1.481-0.478
	c0.688-0.231,1.388-0.295,2.05-0.771c0.561-0.402,1.479-0.309,2.241-0.422c0.422-0.062,0.936,0.079,0.995-0.616
	c0.01-0.114,0.339-0.243,0.538-0.289c0.361-0.083,0.736-0.108,1.175-0.166c-1.189-4.894-2.368-9.744-3.566-14.672
	c0.937,0,1.832,0.087,2.704-0.02c1.46-0.177,2.36,0.431,3.201,1.599c2.67,3.711,5.46,7.337,8.184,11.01
	c0.502,0.676,1.044,0.973,1.921,0.781c6.817-1.494,13.74-1.63,20.679-1.549c1.386,0.017,2.772,0.027,4.159,0.033
	c0.254,0.001,0.509-0.032,0.908-0.06c-0.354-2.833-0.704-5.627-1.058-8.46c0.128-0.042,0.268-0.086,0.477-0.153
	c-0.187-1.254-0.373-2.517-0.568-3.832c-0.664,0.115-0.867-0.317-1.088-0.816c-2.137-4.828-4.294-9.646-6.443-14.468
	c-0.079-0.178-0.145-0.363-0.24-0.604c0.278-0.038,0.519-0.071,0.654-0.09c-0.101-0.173-0.24-0.37-0.339-0.586
	c-1.898-4.176-3.802-8.35-5.68-12.536c-0.258-0.576-0.467-1.106-1.306-0.854c-0.02-0.057-0.039-0.115-0.059-0.172
	c0.146-0.178,0.291-0.355,0.469-0.573c-0.079-0.091-0.217-0.25-0.5-0.576c0.945,0,1.745-0.031,2.54,0.015
	c0.343,0.02,0.513-0.087,0.627-0.373c0.158,0,0.316,0,0.475,0c0.861,0.453,1.756,0.854,2.572,1.377
	c0.505,0.323,1.086,0.487,1.506,1.019C44.97,10.52,51.263,18.417,57.55,26.318c1.417,1.782,2.845,3.556,4.252,5.346
	c0.221,0.28,0.432,0.422,0.795,0.342c0.328-0.072,0.676-0.055,0.996-0.145c0.223-0.062,0.406-0.25,0.617-0.363
	c0.252-0.135,0.505-0.319,0.776-0.363c2.104-0.344,4.222-0.301,6.339-0.135c1.049,0.082,1.33,0.324,1.374,1.391
	c0.048,1.145,0.003,2.295-0.052,3.441c-0.028,0.598-0.359,0.857-1.068,0.852c-1.779-0.013-3.559-0.063-5.338-0.097
	c-0.116-0.002-0.233,0-0.565,0c2.12,2.081,3.474,4.624,5.735,6.39c0.732,0.737,0.795,1.19,1.223,1.187
	c7.367-0.058,14.733-0.15,22.101-0.191c3.683-0.021,7.374-0.002,11.022,0.577c3.652,0.58,7.29,1.26,10.657,2.913
	c1.044,0.512,1.892,1.208,2.362,2.302C118.776,49.921,118.776,50.079,118.776,50.238z"/>
</svg>
