<?xml version="1.0" encoding="utf-8"?>
<!-- Generator: Adobe Illustrator 16.0.4, SVG Export Plug-In . SVG Version: 6.00 Build 0)  -->
<!DOCTYPE svg PUBLIC "-//W3C//DTD SVG 1.1//EN" "http://www.w3.org/Graphics/SVG/1.1/DTD/svg11.dtd">
<svg version="1.1" id="Layer_1" xmlns="http://www.w3.org/2000/svg" xmlns:xlink="http://www.w3.org/1999/xlink" x="0px" y="0px"
	 width="100px" height="200px" viewBox="0 0 100 200" enable-background="new 0 0 100 200" xml:space="preserve">
<path d="M48.998,2C27.54,2,10.144,18.506,10.144,38.873c0,12.172,6.215,22.969,15.797,29.682c1.021,0.715,2.083,1.378,3.177,2
	h-0.015c0,0,0.03,0.011,0.08,0.036c1.604,0.908,3.282,1.705,5.024,2.386c2.635,1.262,5.962,2.868,9.165,4.461
	c1.451,0.72,2.74,3.546,3.584,5.861v33.073h-0.32l-1.434,9.574l-4.22,11.713l1.514,0.549l1.312,0.318l1.395,0.477H46l0.637,0.475
	h0.32v44.84h-5.085v11.975l6.118,1.268l6.117-0.477v-11.475l-5.44-1.291h-0.255v-44.948l0.615-0.366h0.794l1.672-1.109l1.749-0.557
	v-1.422l-4.137-10.051l-0.56-9.492h-0.134V84.218c0.511-2.111,1.573-4.977,3.642-5.517c3.342-0.871,16.053-7.715,16.053-7.715
	c11.791-6.331,19.75-18.341,19.75-32.113C87.855,18.506,70.457,2,48.998,2z"/>
</svg>
