<?xml version="1.0" encoding="utf-8"?>
<!-- Generator: Adobe Illustrator 16.0.4, SVG Export Plug-In . SVG Version: 6.00 Build 0)  -->
<!DOCTYPE svg PUBLIC "-//W3C//DTD SVG 1.1//EN" "http://www.w3.org/Graphics/SVG/1.1/DTD/svg11.dtd">
<svg version="1.1" id="Layer_1" xmlns="http://www.w3.org/2000/svg" xmlns:xlink="http://www.w3.org/1999/xlink" x="0px" y="0px"
	 width="50px" height="75px" viewBox="0 0 50 75" enable-background="new 0 0 50 75" xml:space="preserve">
<g id="weather-balloon">
	<path fill="#010101" d="M27.867,54.343c0-0.962-0.554-1.926-1.373-2.335V42.16c5.61-10.954,15.048-17.382,15.048-25.725
		c0-9.028-7.392-16.408-16.42-16.408S8.702,7.407,8.702,16.436c0,3.696,1.926,7.259,4.527,10.942v0.145h0.132
		c3.286,4.647,7.523,9.437,10.401,14.771v9.715c-0.831,0.409-1.373,1.373-1.373,2.335c0,0.951,0.542,1.902,1.373,2.312v13.277
		c-0.831,0.41-1.373,1.36-1.373,2.324c0,1.503,1.228,2.744,2.733,2.744s2.745-1.241,2.745-2.744c0-0.964-0.554-1.914-1.373-2.324
		V56.654C27.313,56.245,27.867,55.294,27.867,54.343z"/>
	<path fill="#010101" d="M25.122,2.749c5.068,0,9.582,2.889,11.905,6.981H13.229C15.552,5.638,19.921,2.749,25.122,2.749z"/>
	<path fill="#010101" d="M11.447,16.436c0-1.361,0.133-2.588,0.542-3.828h26.134c0.41,1.24,0.543,2.6,0.543,3.828
		c0,2.877-1.506,5.477-3.552,8.487H14.999C12.952,21.913,11.447,19.036,11.447,16.436z"/>
	<path fill="#010101" d="M24.99,38.874c-1.781-3.009-3.973-5.887-6.164-8.619c-0.673-0.951-1.505-1.915-2.179-2.878H33.2
		c-0.41,0.554-0.818,0.963-1.229,1.517C29.78,31.904,27.181,35.179,24.99,38.874z"/>
</g>
</svg>
