<?xml version="1.0" encoding="utf-8"?>
<!-- Generator: Adobe Illustrator 16.0.4, SVG Export Plug-In . SVG Version: 6.00 Build 0)  -->
<!DOCTYPE svg PUBLIC "-//W3C//DTD SVG 1.1//EN" "http://www.w3.org/Graphics/SVG/1.1/DTD/svg11.dtd">
<svg version="1.1" id="Layer_1" xmlns="http://www.w3.org/2000/svg" xmlns:xlink="http://www.w3.org/1999/xlink" x="0px" y="0px"
	 width="50px" height="75px" viewBox="0 0 50 75" enable-background="new 0 0 50 75" xml:space="preserve">
<path fill-rule="evenodd" clip-rule="evenodd" fill="#BFBFBF" d="M24.314,33.353c-7.663-2.258-15.313-4.565-22.993-6.769
	c-1.201-0.344-1.326-0.966-1.314-1.999C0.179,8.555,16.229-3.361,32.011,0.855c3.493,0.933,6.677,2.467,9.553,4.885
	c-4.995,5.19-9.884,10.211-14.677,15.32c-0.631,0.671-1.053,1.79-1.09,2.722c-0.132,3.212-0.052,6.434-0.052,9.756
	C25.154,33.465,24.716,33.471,24.314,33.353z"/>
<path fill-rule="evenodd" clip-rule="evenodd" fill="#BFBFBF" d="M0.015,28.268c0,2.348-0.055,4.457,0.044,6.559
	C0.08,35.267,0.588,35.952,1,36.069c13.47,3.836,26.955,7.617,40.439,11.402c0.047,0.012,0.109-0.033,0.336-0.104
	c0.625-1.938,1.282-3.975,1.994-6.183C29.134,36.865,14.666,32.593,0.015,28.268z"/>
<path fill-rule="evenodd" clip-rule="evenodd" fill="#BFBFBF" d="M0.066,38.062c0,5.663,0,11.172,0,17.036
	c0.472-0.584,0.772-0.918,1.028-1.282c7.641-10.902,21.936-10.752,29.243,0.347c0.653,0.991,1.301,1.423,2.519,1.396
	c3.893-0.086,7.788-0.033,11.969-0.033c-1.206-1.962-2.217-3.713-3.353-5.381c-0.309-0.452-0.955-0.786-1.51-0.943
	c-13.05-3.703-26.106-7.374-39.164-11.046C0.626,38.105,0.438,38.107,0.066,38.062z"/>
<path fill-rule="evenodd" clip-rule="evenodd" fill="#BFBFBF" d="M37.693,33.839c-0.238,2.182-1.529,2.983-3.588,2.379
	c-1.724-0.505-3.429-1.087-5.173-1.505c-0.987-0.236-1.285-0.713-1.27-1.677c0.046-2.98,0.003-5.962,0.036-8.941
	c0.006-0.467,0.068-1.09,0.363-1.374c2.4-2.308,4.862-4.551,7.578-7.067c0.611,1.56,1.33,3.285,1.961,5.042
	c0.559,1.552,0.98,3.153,1.539,4.706c0.27,0.752,0.725,1.437,1.08,2.159c0.83,1.691,0.618,2.067-1.207,2.172
	c-0.307,0.018-0.611,0.04-1.297,0.084C37.717,31.259,37.83,32.563,37.693,33.839z M34.445,24.767
	c0.387-0.001,1.061-0.708,1.081-1.126c0.018-0.412-0.608-1.179-0.985-1.201c-0.487-0.028-1.008,0.529-1.955,1.101
	C33.483,24.171,33.964,24.767,34.445,24.767z"/>
<path fill-rule="evenodd" clip-rule="evenodd" fill="#BFBFBF" d="M2.478,55.424c8.891,0,17.408,0,26.238,0
	c-3.146-4.625-7.153-7.375-12.544-7.57C10.341,47.643,6.018,50.49,2.478,55.424z"/>
<path fill-rule="evenodd" clip-rule="evenodd" fill="#BFBFBF" d="M41.298,8.852c-0.368,0.5-0.759,1.032-1.147,1.56
	c9.829,8.218,8.898,20.604,1.356,27.783c1.289,0.898,2.231,0.918,3.37-0.408C52.217,29.234,50.635,15.484,41.298,8.852z"/>
</svg>
