<?xml version="1.0" encoding="utf-8"?>
<!-- Generator: Adobe Illustrator 16.0.4, SVG Export Plug-In . SVG Version: 6.00 Build 0)  -->
<!DOCTYPE svg PUBLIC "-//W3C//DTD SVG 1.1//EN" "http://www.w3.org/Graphics/SVG/1.1/DTD/svg11.dtd">
<svg version="1.1" id="Layer_1" xmlns="http://www.w3.org/2000/svg" xmlns:xlink="http://www.w3.org/1999/xlink" x="0px" y="0px"
	 width="100px" height="50px" viewBox="0 0 100 50" enable-background="new 0 0 100 50" xml:space="preserve">
<path fill-rule="evenodd" clip-rule="evenodd" fill="#BFBFBF" d="M29.91,28.059c0.078,0.049,4.465-6.309,4.465-6.309l3.875,5.375
	L40.75,24c0.175,0.051,1.845,5.759,2.021,5.812l6.889-16.215c0.194,0.003,0.389,0.007,0.583,0.015
	c0.785,3.483,1.572,5.966,2.355,9.453c0.164-0.015,0.325-0.03,0.487-0.046c0.386-2.917,0.771-4.83,1.266-8.581
	c2.603,5.837,3.872,8.923,6.142,14.011c0.266-0.11,0.53-0.216,0.795-0.324l1-6.038c8.698,6.965,16.963,12.577,25.223,19.188
	c0.142-0.227,0.286-0.457,0.429-0.688C75.692,27.854,63.446,16.118,51.07,3.243c-3.858,6.021-7.416,11.577-11.401,17.795
	c-1.47-2.038-2.712-3.762-4.413-6.117l-20.182,21.61c-0.947-1.32-2.291-3.452-2.291-3.452s0.716-1.335,1.278-2.335
	c0.644,1.481,1.122,2.576,1.753,4.029l19.766-22.698c1.299,1.687,2.532,3.287,4.105,5.328c3.599-5.83,7.095-11.494,10.713-17.358
	c16.386,16.264,32.608,32.363,49.417,49.044c-1.798,0.114-2.757,0.219-3.713,0.227L57,41.834L45.833,45l-14.5-2.166L0.043,49.91
	c4.246-5.612,8.494-11.222,12.741-16.83l0.48,0.752c0,0-3.61,4.74-4.667,6.595c0.125,0.096,0.251,0.188,0.377,0.283
	c1.094-1.332,2.187-2.667,3.601-4.389c-0.187,1.558-0.312,1.615-0.53,3.438c3.453-2.917,6.395-4.404,9.387-6.936
	c0.894,1.192,1.658,1.207,2.582,2.433C26.006,32.483,27.882,30.88,29.91,28.059"/>
</svg>
