<?xml version="1.0" encoding="utf-8"?>
<!-- Generator: Adobe Illustrator 16.0.4, SVG Export Plug-In . SVG Version: 6.00 Build 0)  -->
<!DOCTYPE svg PUBLIC "-//W3C//DTD SVG 1.1//EN" "http://www.w3.org/Graphics/SVG/1.1/DTD/svg11.dtd">
<svg version="1.1" id="Layer_1" xmlns="http://www.w3.org/2000/svg" xmlns:xlink="http://www.w3.org/1999/xlink" x="0px" y="0px"
	 width="100px" height="48.086px" viewBox="0 0 100 48.086" enable-background="new 0 0 100 48.086" xml:space="preserve">
<path fill-rule="evenodd" clip-rule="evenodd" fill="#BFBFBF" d="M52.363,12.714c-0.705,0.147-1.371,0.287-2.037,0.423
	c-1.109,0.228-2.219,0.453-3.329,0.681c-0.403,0.083-0.803,0.208-1.21,0.249c-0.293,0.03-0.411,0.195-0.483,0.419
	c-0.07,0.215-0.13,0.351-0.412,0.376c-0.391,0.036-0.523,0.415-0.701,0.709c-0.024,0.04-0.036,0.087-0.056,0.134
	c1.965,0.984,3.93,1.971,5.899,2.948c0.123,0.061,0.279,0.074,0.42,0.074c6.569,0.003,13.139,0.001,19.707,0.006
	c0.723,0,1.445,0.031,2.168,0.058c0.865,0.032,1.732,0.07,2.598,0.118c0.931,0.051,1.861,0.112,2.791,0.176
	c0.765,0.053,1.531,0.096,2.291,0.181c0.813,0.091,1.621,0.23,2.433,0.339c0.526,0.071,1.06,0.099,1.581,0.192
	c0.651,0.115,1.298,0.262,1.939,0.423c1.736,0.438,3.478,0.863,5.199,1.354c0.742,0.211,1.443,0.569,2.162,0.862
	c0.043,0.018,0.09,0.04,0.122,0.073c0.581,0.602,1.378,0.85,2.089,1.232c0.273,0.147,0.662,0.097,0.999,0.108
	c0.402,0.013,0.803,0.055,1.185-0.188c0.154-0.099,0.41-0.039,0.619-0.051c0.006,0.026,0.012,0.052,0.017,0.078
	c-0.187,0.05-0.372,0.1-0.558,0.15c0.003,0.021,0.006,0.042,0.008,0.063c0.732,0.046,1.465,0.092,2.195,0.138
	c0,0.013,0,0.025,0,0.039c-0.338,0.023-0.674,0.053-1.012,0.068c-0.936,0.043-1.869,0.088-2.805,0.117
	c-0.584,0.018-1.066,0.282-1.547,0.57c-0.123,0.074-0.25,0.144-0.379,0.209c-0.287,0.146-0.55,0.312-0.801,0.529
	c-0.25,0.218-0.604,0.32-0.921,0.454c-1.666,0.704-3.429,1.098-5.163,1.571c-1.053,0.289-2.128,0.504-3.199,0.718
	c-0.52,0.104-1.055,0.124-1.582,0.192c-0.506,0.064-1.01,0.146-1.516,0.215c-0.373,0.051-0.746,0.105-1.121,0.133
	c-0.93,0.068-1.861,0.121-2.791,0.181c-0.611,0.039-1.222,0.085-1.832,0.116c-0.896,0.045-1.791,0.08-2.687,0.119
	c-0.458,0.02-0.915,0.055-1.372,0.057c-6.611,0.022-13.223,0.041-19.834,0.061c-0.189,0.001-0.38,0.015-0.568-0.002
	c-0.459-0.042-0.865,0.077-1.278,0.289c-1.811,0.927-3.636,1.826-5.536,2.776c0.246,0.269,0.43,0.634,0.709,0.732
	c0.354,0.126,0.507,0.315,0.633,0.625c0.042,0.104,0.204,0.198,0.327,0.226c1.096,0.24,2.196,0.465,3.295,0.691
	c0.996,0.206,1.993,0.406,2.989,0.61c0.104,0.021,0.205,0.048,0.378,0.088c-0.388,0.12-0.71,0.227-1.035,0.32
	c-1.179,0.339-2.358,0.673-3.538,1.01c-0.681,0.194-1.363,0.388-2.042,0.591c-0.108,0.033-0.279,0.111-0.288,0.186
	c-0.064,0.532-0.491,0.728-0.863,0.968c-0.446,0.288-0.893,0.583-1.366,0.823c-0.364,0.186-0.764,0.307-1.157,0.426
	c-0.586,0.176-1.176,0.35-1.774,0.479c-0.9,0.196-1.805,0.376-2.714,0.521c-0.725,0.114-1.458,0.176-2.188,0.24
	c-0.832,0.072-1.665,0.128-2.498,0.176c-0.575,0.034-1.15,0.046-1.726,0.061c-0.879,0.023-1.759,0.038-2.639,0.062
	c-0.517,0.014-1.033,0.034-1.549,0.062c-0.091,0.005-0.186,0.046-0.27,0.088c-2.857,1.424-5.71,2.854-8.569,4.273
	c-1.432,0.711-2.87,1.408-4.308,2.107c-0.814,0.395-1.601,0.327-2.431-0.033c-0.59-0.257-1.04-0.633-1.365-1.145
	c-0.188-0.295-0.243-0.68-0.342-1.029c-0.34-1.208-0.67-2.418-1.009-3.627c-0.207-0.738-0.427-1.472-0.631-2.21
	c-0.05-0.179-0.014-0.323,0.188-0.429c0.391-0.204,0.787-0.414,1.135-0.68c0.35-0.268,0.715-0.354,1.138-0.328
	c0.332,0.021,0.665,0.004,1.001-0.032c-0.62-0.105-1.239-0.21-1.858-0.317c-0.075-0.014-0.163-0.023-0.216-0.068
	c-0.086-0.072-0.18-0.165-0.207-0.266c-0.013-0.051,0.119-0.137,0.196-0.221c-0.051-0.017-0.124-0.04-0.151-0.049
	c0-0.553-0.013-1.086,0.005-1.617c0.009-0.244-0.102-0.358-0.307-0.426c-0.371-0.123-0.741-0.246-1.107-0.367
	c0.006-0.047,0.002-0.072,0.013-0.084c0.506-0.53,1.008-1.064,1.524-1.584c0.078-0.078,0.223-0.09,0.346-0.136
	c-0.059-0.456-0.107-0.5-0.689-0.678c-0.871-0.265-1.729-0.58-2.612-0.792c-0.497-0.119-0.661-0.395-0.768-0.838
	c-0.456-1.871-0.942-3.734-1.4-5.605c-0.059-0.242-0.192-0.328-0.396-0.339c-0.565-0.03-1.13-0.056-1.696-0.06
	c-0.718-0.006-1.38-0.223-2.032-0.494c-0.153-0.064-0.226-0.166-0.18-0.314c0.032-0.105,0.095-0.24,0.182-0.28
	c0.642-0.296,1.308-0.501,2.026-0.507c0.565-0.005,1.131-0.03,1.696-0.059c0.204-0.01,0.339-0.094,0.399-0.335
	c0.498-2.019,1.01-4.034,1.531-6.047C5.875,16.718,6,16.594,6.104,16.561c1.051-0.328,2.104-0.652,3.165-0.948
	c0.372-0.104,0.463-0.377,0.526-0.609c-0.18-0.117-0.365-0.197-0.497-0.33c-0.475-0.478-0.932-0.973-1.436-1.504
	c0.335-0.115,0.644-0.225,0.954-0.327c0.496-0.164,0.506-0.162,0.494-0.689C9.3,11.69,9.265,11.227,9.24,10.75
	c0.096-0.02,0.167-0.035,0.251-0.053c-0.02-0.035-0.027-0.064-0.046-0.08c-0.061-0.052-0.187-0.113-0.179-0.146
	c0.021-0.087,0.082-0.211,0.154-0.233c0.301-0.091,0.609-0.162,0.919-0.22c0.402-0.076,0.809-0.133,1.21-0.238
	c-0.274,0-0.551-0.028-0.82,0.006c-0.598,0.076-1.094-0.125-1.564-0.471C8.888,9.112,8.586,8.937,8.28,8.779
	C8.067,8.669,8.041,8.522,8.097,8.325c0.295-1.042,0.592-2.083,0.884-3.125C9.31,4.03,9.631,2.856,9.968,1.688
	c0.04-0.139,0.173-0.249,0.248-0.381c0.309-0.548,0.81-0.826,1.384-1.01c0.227-0.073,0.449-0.163,0.677-0.231
	c0.587-0.175,1.125,0.029,1.633,0.273c1.26,0.607,2.503,1.247,3.756,1.868c3.031,1.5,6.064,2.997,9.097,4.493
	c0.084,0.042,0.182,0.072,0.274,0.075c0.879,0.024,1.759,0.043,2.639,0.062c0.958,0.021,1.917,0.017,2.874,0.065
	c0.948,0.049,1.895,0.135,2.839,0.232c0.969,0.1,1.943,0.185,2.898,0.363c1.129,0.21,2.278,0.345,3.368,0.747
	c0.475,0.176,0.995,0.256,1.437,0.488c0.668,0.351,1.268,0.833,1.936,1.184c0.272,0.144,0.351,0.33,0.402,0.564
	c0.044,0.201,0.181,0.252,0.339,0.298c1.288,0.373,2.576,0.747,3.865,1.116c0.847,0.243,1.697,0.477,2.544,0.717
	C52.231,12.626,52.276,12.665,52.363,12.714z"/>
</svg>
