<?xml version="1.0" encoding="utf-8"?>
<!-- Generator: Adobe Illustrator 16.0.4, SVG Export Plug-In . SVG Version: 6.00 Build 0)  -->
<!DOCTYPE svg PUBLIC "-//W3C//DTD SVG 1.1//EN" "http://www.w3.org/Graphics/SVG/1.1/DTD/svg11.dtd">
<svg version="1.1" id="Layer_1" xmlns="http://www.w3.org/2000/svg" xmlns:xlink="http://www.w3.org/1999/xlink" x="0px" y="0px"
	 width="85px" height="75px" viewBox="7.5 -12.5 85 75" enable-background="new 7.5 -12.5 85 75" xml:space="preserve">
<path fill="#BFBFBF" d="M8.911,57.246c-0.045-0.126-0.09-0.247-0.132-0.373c-0.154-0.064-0.311-0.132-0.465-0.196
	c-0.021-0.128-0.043-0.251-0.063-0.38c0.629-0.417,1.251-0.869,1.892-1.238c0.417-0.24,1.039,0,0.99-1.216
	c-0.036-0.932,0.061-1.632,0.771-1.481c-0.168-1.165-0.541-1.316-1.098-0.921c-0.16,0.116-0.398,0.081-0.563-0.036
	c-0.08-0.055-0.149-0.559-0.09-0.667c0.13-0.241,0.334-0.393,0.525-0.523c0.214-0.147,0.445-0.225,0.662-0.363
	c0.024-0.016,0.004-0.222,0.004-0.423c-0.233,0.115-0.423,0.21-0.748,0.374c0.134-0.48,0.166-0.909,0.307-1.043
	c0.68-0.659,1.374-1.301,2.096-1.83c0.508-0.377,1.093-0.478,1.599-0.86c0.989-0.75,1.399-0.329,1.406,1.505
	c0.002,0.485,0.133,0.965,0.207,1.447c0.077-0.033,0.153-0.071,0.23-0.107c-0.052-0.398-0.101-0.805-0.188-1.526
	c0.859,0.272,1.618,0.512,2.433,0.769c0.132-0.247,0.297-0.661,0.517-0.962c0.583-0.8,1.217-1.497,1.777-2.335
	c0.556-0.829,0.264-2.485,1.062-3.141c0.037-0.03,0.021-0.254,0.019-0.382c-0.025-1.78,0.772-2.677,1.426-3.907
	c0.417,1.089,0.977,1.96,1.073,2.953c0.143,1.472,0.604,2.486,1.198,3.387c0.167,0.26,0.747,0.25,0.87,0
	c0.239-0.482,0.396-1.227,0.383-1.849c-0.016-0.607-0.284-1.201-0.486-1.977c-0.029-0.012-0.221-0.097-0.408-0.178
	c0.085-0.831,0.162-1.562,0.234-2.275c1.059-0.278,2.312-1.803,2.281-4.163c-0.009-0.482-0.104-1.065,0.023-1.426
	c0.335-0.948,0.733-2.453,1.174-2.526c0.609-0.098,0.675-0.787,1.013-1.109c0.501-0.478,0.492-1.183,0.485-1.949
	c-0.003-0.475-0.064-1.014,0.047-1.412c0.288-1.025-0.031-2.83,1.154-2.692c0.191-0.808,0.583-1.644,0.492-2.294
	c-0.097-0.69-0.077-1.11,0.177-1.538c0.285-0.486,0.636-0.865,0.916-1.357c0.442-0.781,0.674-1.937,1.438-2.148
	c0.054-0.015,0.108-0.181,0.133-0.292c0.231-0.978,0.448-1.966,0.694-2.936c0.055-0.226,0.208-0.386,0.31-0.583
	c0.556-1.057,1.141-2.075,1.656-3.184c0.436-0.932,1.751-2.074,2.191-1.657c0.596,0.558,0.987,0.242,1.405-0.515
	c0.188-0.339,0.538-0.66,0.796-0.624c0.731,0.094,1.452,0.377,2.13,0.574c0.641-0.765,1.269-1.556,1.926-2.271
	c0.205-0.223,0.558-0.45,0.735-0.309c0.66,0.526,1.333,1.626,1.541-0.651c0.001-0.019,0.049-0.03,0.073-0.045
	c0.842-0.619,1.653-1.468,2.533-1.793c0.964-0.354,1.267-1.55,1.292-2.65c0.029-1.212,0.369-1.568,0.893-1.945
	c0.613-0.443,1.107-1.026,1.118-2.31c0.002-0.289,0.155-0.734,0.308-0.838c0.799-0.551,1.14-1.826,1.684-2.775
	c0.269-0.473,0.508-1.041,0.835-1.366c1.391-1.398,2.815-1.753,4.253-0.125c0.062,0.072,0.149,0.123,0.225,0.121
	c1.053-0.014,1.47,1.45,2.111,2.42c0.475,0.719,0.949,1.629,1.523,1.922c0.963,0.491,2.004,0.559,3.036,0.811
	c-0.098,0.986-0.161,1.659,0.541,1.168c0.157-0.106,0.59,0.208,0.632,0.456c0.174,0.96,0.225,1.977,0.351,2.964
	c0.06,0.458,0.143,0.958,0.306,1.324c0.52,1.165,1.078,2.284,1.631,3.412c0.089,0.18,0.203,0.344,0.324,0.469
	c0.616,0.641,1.246,1.25,1.854,1.917c0.093,0.1,0.097,0.442,0.122,0.679c0.112,1.077,0.085,2.258,0.359,3.208
	c0.369,1.299,0.978,2.41,1.463,3.623c0.096,0.244,0.128,0.58,0.149,0.884c0.255,3.378,0.615,6.702,2.152,9.253
	c0.24,0.396,0.586,0.857,0.938,0.022c0.075-0.181,0.575-0.181,0.611-0.058c0.349,1.282,1.178,2.186,1.116,3.797
	c-0.056,1.391,0.319,1.624,0.849,0.996c0.527,1.169,1.011,2.239,1.492,3.316c0.143,0.323,0.292,0.646,0.395,1.001
	c0.365,1.231,0.708,2.473,1.066,3.7c0.045,0.15,0.159,0.237,0.231,0.36c0.842,1.378,0.982,3.275,1.298,5.01
	c0.176,0.974,0.104,2.067,0.145,3.123C88.243,48.993,92.5,57.25,92.5,57.25H8.911V57.246z"/>
</svg>
